<svg xml:space="preserve" style="enable-background:new 0 0 547.1 141.1;" viewBox="0 0 547.1 141.1" y="0px" x="0px" xmlns:xlink="http://www.w3.org/1999/xlink" xmlns="http://www.w3.org/2000/svg" id="Border_x2F_background" version="1.1">
<style type="text/css">
	.st0{fill:#006649;}
	.st1{fill-rule:evenodd;clip-rule:evenodd;fill:#006548;stroke:#006548;stroke-width:1.3715;}
	.st2{fill-rule:evenodd;clip-rule:evenodd;fill:#006548;stroke:#006548;stroke-width:1.3715;stroke-linejoin:round;}
	.st3{fill-rule:evenodd;clip-rule:evenodd;fill:#FFFFFF;}
	.st4{fill-rule:evenodd;clip-rule:evenodd;fill:#006548;}
</style>
<g>
	<path d="M0,0h519.1v28.7H50V141H25.1V28.7H0V0z" class="st0"></path>
	<path d="M79.5,34.4v28.4h0.3c2.3-4.4,5.9-6.6,10.9-6.6c10,0,12.3,3.5,12.3,16.9V141H87V75.5c0-3.8-1.1-5.8-3.4-5.8
		c-2.6,0-4.1,0.7-4.1,5.8V141H63.7V34.4H79.5z" class="st0"></path>
	<path d="M133.9,109.2h15.9v17.2c0,12.3-11,15.8-19.7,15.8c-8.7,0-19.6-3.3-19.6-15.8V72.1c0-8.1,5.4-15.8,19.6-15.8
		c14.1,0,19.7,7.7,19.7,15.8v29.2h-23.5V126c0,1.5-0.7,4.6,3.8,4.6c2.3,0,3.8-0.5,3.8-4.6V109.2z M133.9,90.3V72.4
		c0-4.1-1.3-4.6-3.8-4.6c-2.5,0-3.8,0.5-3.8,4.6v17.9H133.9z" class="st0"></path>
	<path d="M157.4,141V57.5h15.8v5.4h0.3c2.3-4.4,5.9-6.6,10.9-6.6c9.4,0,12.3,3,12.3,17.9v27.1h-15.9V75.5
		c0-3.8-1.2-5.8-3.5-5.8c-2.6,0-4.1,0.7-4.1,5.8V141H157.4z" class="st0"></path>
	<path d="M242.9,141h-15c-0.7-1.3-1-3.5-1-6.4h-0.3c-2.3,3.5-4.3,7.6-12.3,7.6c-7.1,0-10.7-3.6-10.7-10.9v-26.4
		c0-5.1-0.3-8.7,11.2-14.6c10.4-5.1,11.7-5,11.7-13.1c0-3.9,0.5-9.4-3.1-9.4c-2.5,0-3.8,1-3.8,10.8v7h-15.9V72.1
		c0-8.1,5.4-15.8,19.6-15.8c14.1,0,19.7,7.7,19.7,15.8V141z M227,97.5c-2.6,1.6-7.6,3.8-7.6,9.5v18.5c0.3,2.1,1.6,3.1,3.8,3.1
		c2.5-0.3,3.8-1.6,3.8-3.8V97.5z" class="st0"></path>
	<path d="M257.4,140.9V34.4h24.7c10,0,20.6,4.3,20.6,21v13.1c0,11.8-8.7,13.8-16.3,15.9c8.2,1.6,16.8,2.6,16.8,18.3
		v13.4c0,13.1-5.9,24.7-21.2,24.7H257.4z M274.8,47.8v29.7h3.9c2.3,0,6.2,0.7,6.2-8.7V56.5c0-3.6,0.3-8.7-6.2-8.7H274.8z
		 M274.8,91.5v35.4c6.7,0,10.7-0.2,10.7-9.2v-17c0-4.4-0.2-9.2-7.2-9.2H274.8z" class="st0"></path>
	<path d="M312,141.1V57.5h15.8v5.4h0.3c2.3-4.4,5.9-6.6,10.9-6.6c9.4,0,12.3,3,12.3,17.9v27.2h-15.9V75.5
		c0-3.8-1.2-5.8-3.5-5.8c-2.6,0-4.1,0.7-4.1,5.8v65.6H312z" class="st0"></path>
	<path d="M382.2,109.3h15.9v17.2c0,12.3-11,15.8-19.7,15.8c-8.7,0-19.6-3.3-19.6-15.8V72.1c0-8.1,5.4-15.8,19.6-15.8
		c14.1,0,19.7,7.7,19.7,15.8v29.3h-23.5v24.7c0,1.5-0.7,4.6,3.8,4.6c2.3,0,3.8-0.5,3.8-4.6V109.3z M382.2,90.4v-18
		c0-4.1-1.3-4.6-3.8-4.6c-2.5,0-3.8,0.5-3.8,4.6v18H382.2z" class="st0"></path>
	<path d="M445,141.1h-15c-0.7-1.3-1-3.5-1-6.4h-0.3c-2.3,3.4-4.3,7.6-12.3,7.6c-7.1,0-10.7-3.6-10.7-10.9V105
		c0-5.1-0.3-8.7,11.2-14.6c10.4-5.1,11.7-5.2,11.7-13.2c0-3.9,0.5-9.4-3.1-9.4c-2.5,0-3.8,1-3.8,10.8v7.1h-15.9V72.1
		c0-8.1,5.4-15.8,19.6-15.8c14.1,0,19.7,7.7,19.7,15.8V141.1z M429,97.6c-2.6,1.6-7.6,3.8-7.6,9.5v18.5c0.3,2.1,1.6,3.1,3.8,3.1
		c2.5-0.3,3.8-1.6,3.8-3.8V97.6z" class="st0"></path>
	<path d="M470.6,40.5v16.9h5.1V70h-5.1v51.1c0,5.1,1.1,7.6,5.1,7.6v12.5h-9.1c-7.6,0-11.8-5.9-11.8-12.5V70h-4.6V57.5
		h4.6V40.5H470.6z" class="st0"></path>
	<path d="M496.6,34.4v28.4h0.3c2.3-4.4,5.9-6.6,10.9-6.6c10,0,12.3,3.5,12.3,16.9v67.9h-15.9V75.5
		c0-3.8-1.2-5.8-3.5-5.8c-2.6,0-4.1,0.7-4.1,5.8v65.6h-15.8V34.4H496.6z" class="st0"></path>
</g>
<g>
	<path d="M25.9,6.5c0,0-19.7,0.1-19.6,0c0.1-0.1-0.4,2.1,2.2,4c2.6,1.9,3.9,2,5,2c1.1,0,8.1,0,8.1,0l0.4,0.5h-9.5
		c0,0,0.2,2,1.6,3.2c1.4,1.1,3,1.9,4.6,1.9c1.6,0,8.3,0,8.3,0l0.5,0.5h-9.9c0,0,0.2,1.5,1.2,2.4c1.1,0.8,1.4,1.4,3.3,1.4
		c1.9,0,6.6,0,6.6,0s0-2.9,0.5-5.5c0.4-2,1.5-3,2-3.3c0.5-0.3,1.3-0.7,1.7-0.5c0.4,0.2,1.5,0.6,1.3,2.4c-0.3,3.1-1,2.9-1.3,3.9
		c-0.3,1-0.3,2.9-0.3,2.9h3V13c0,0-3.3-0.2-5.6-1.6C26.4,9.2,25.9,6.5,25.9,6.5z" class="st1"></path>
	<path d="M49.3,6.5c0,0,19.7,0.1,19.6,0c-0.1-0.1,0.4,2.1-2.2,4c-2.6,1.9-3.9,2-5,2c-1.1,0-8.1,0-8.1,0l-0.4,0.5h9.5
		c0,0-0.2,2-1.6,3.2c-1.4,1.1-3,1.9-4.6,1.9c-1.6,0-8.2,0-8.2,0L48,18.5h9.9c0,0-0.2,1.5-1.2,2.4c-1.1,0.8-1.4,1.4-3.3,1.4
		c-1.9,0-6.6,0-6.6,0s0-2.9-0.5-5.5c-0.4-2-1.5-3-2-3.3c-0.5-0.3-1.3-0.7-1.7-0.5c-0.4,0.2-1.5,0.6-1.3,2.4c0.3,3.1,1,2.9,1.3,3.9
		c0.3,1,0.3,2.9,0.3,2.9H40V13c0,0,3.3-0.2,5.6-1.6C48.8,9.2,49.3,6.5,49.3,6.5z" class="st1"></path>
	<path d="M37.7,4.8c-1.4,0-3.1,1.6-3.1,3.4c0,1.8,1.2,3.2,3.1,3.3c2,0.1,2.7-1.7,2.8-3.3C40.6,6.5,39.6,4.8,37.7,4.8z" class="st1"></path>
	<path d="M36.3,12.4v16.2l1.3,1.3l1.3-1.3V12.4H36.3z" class="st1"></path>
	<path d="M37.5,37l-1.1,1.8v9.6l1.4,1.6l1.2-1.6v-9.5L37.5,37z" class="st1"></path>
	<path d="M37.6,56.6l-1.3,2.2v8l1.3,1.5l1.3-1.5v-8.2L37.6,56.6z" class="st1"></path>
	<path d="M37.5,73.6l-1.2,2v7l1.4,2.1l1.3-2.2v-6.9L37.5,73.6z" class="st1"></path>
	<path d="M37.5,89.8L36.3,91v5.4l1.3,2.1l1.3-2.3v-5.1L37.5,89.8z" class="st1"></path>
	<path d="M32.7,13.8c-0.5-0.2-2,0.6-2.5,2c-0.5,1.4-1,3.7-0.9,5.2c0.1,1.5-0.6,2.8,5,9.7c5.6,6.9,7,10.4,6.9,12.7
		c-0.2,2.3,0.5,2.4-3.4,8c-3.9,5.6-5.7,8.4-5.6,11.5c0.1,2.9,1.6,5.5,4.1,8.2c2.5,2.6,4.3,4.7,4.1,8.2c-0.2,3.5-0.6,4.2-2.7,6.9
		c-2.1,2.7-3.9,5.5-3.9,5.5s3.3-2,4.8-3.9c1.5-1.9,3.7-3.3,3.8-8.7c0.1-5.5-2.5-7-4.1-8.8c-1.6-1.8-3.9-4.1-3.8-7.3
		c0.1-3.3,1.3-5.4,3.5-8.2c2.2-2.9,5.5-6.6,5.5-11.3c0-4.6-4.2-9.5-6.2-12.1c-2.1-2.5-5.8-7-5.8-9.9c0-2.9,1.4-4,1.6-5
		C33.2,15.5,33.2,14,32.7,13.8z" class="st2"></path>
	<path d="M42.6,13.8c-0.5,0.4-1,1.3-0.4,2.4c0.6,1.1,1.7,3.2,1.5,4.9c-0.2,1.7-0.3,3.3-2,5.3c-1.7,2-3.5,4.3-3.5,4.3
		l1.2,2c0,0,3.8-4.4,5.1-6.9c1.3-2.4,1.6-4.3,1.4-6.6c-0.2-2.3-1-4-1.5-4.6C43.8,14,43.1,13.4,42.6,13.8z" class="st1"></path>
	<path d="M35.9,34.4l1.3,1.9c0,0-3.2,4.3-3.1,7.3c0.1,3.8,3.1,7.2,3.1,7.2l-1.5,2c0,0-3.9-4.9-3.8-9.2
		C32,39.2,35.9,34.4,35.9,34.4z" class="st1"></path>
	<path d="M39.5,54l-1.3,1.8c0,0,2.8,3.9,2.8,6.9c-0.1,4.2-2.8,6.1-2.8,6.1l1.5,1.5c0,0,3.4-3.2,3.2-8
		C42.6,57.5,39.5,54,39.5,54z" class="st1"></path>
	<path d="M35.5,71.6c0,0-2.8,3.8-2.6,7.4c0.2,4.8,3.1,8.1,3.1,8.1l1.3-1.6c0,0-2.3-2.7-2.4-6c-0.1-3.7,2.1-6.4,2.1-6.4
		L35.5,71.6z" class="st1"></path>
	<path d="M39.1,88.3l-0.8,0.9c0,0,0.5,0.4,1.2,1c0.7,0.6,2.1,1.8,2.1,1.8s-0.7-1.5-1.2-2.3
		C39.9,88.9,39.1,88.3,39.1,88.3z" class="st2"></path>
	<path d="M25.9,6.5c0,0-19.7,0.1-19.6,0c0.1-0.1-0.4,2.1,2.2,4c2.6,1.9,3.9,2,5,2c1.1,0,8.1,0,8.1,0l0.4,0.5h-9.5
		c0,0,0.2,2,1.6,3.2c1.4,1.1,3,1.9,4.6,1.9c1.6,0,8.3,0,8.3,0l0.5,0.5h-9.9c0,0,0.2,1.5,1.2,2.4c1.1,0.8,1.4,1.4,3.3,1.4
		c1.9,0,6.6,0,6.6,0s0-2.9,0.5-5.5c0.4-2,1.5-3,2-3.3c0.5-0.3,1.3-0.7,1.7-0.5c0.4,0.2,1.5,0.6,1.3,2.4c-0.3,3.1-1,2.9-1.3,3.9
		c-0.3,1-0.3,2.9-0.3,2.9h3V13c0,0-3.3-0.2-5.6-1.6C26.4,9.2,25.9,6.5,25.9,6.5z" class="st3"></path>
	<path d="M49.3,6.5c0,0,19.7,0.1,19.6,0c-0.1-0.1,0.4,2.1-2.2,4c-2.6,1.9-3.9,2-5,2c-1.1,0-8.1,0-8.1,0l-0.4,0.5h9.5
		c0,0-0.2,2-1.6,3.2c-1.4,1.1-3,1.9-4.6,1.9c-1.6,0-8.2,0-8.2,0L48,18.5h9.9c0,0-0.2,1.5-1.2,2.4c-1.1,0.8-1.4,1.4-3.3,1.4
		c-1.9,0-6.6,0-6.6,0s0-2.9-0.5-5.5c-0.4-2-1.5-3-2-3.3c-0.5-0.3-1.3-0.7-1.7-0.5c-0.4,0.2-1.5,0.6-1.3,2.4c0.3,3.1,1,2.9,1.3,3.9
		c0.3,1,0.3,2.9,0.3,2.9H40V13c0,0,3.3-0.2,5.6-1.6C48.8,9.2,49.3,6.5,49.3,6.5z" class="st3"></path>
	<path d="M37.7,4.8c-1.4,0-3.1,1.6-3.1,3.4c0,1.8,1.2,3.2,3.1,3.3c2,0.1,2.7-1.7,2.8-3.3C40.6,6.5,39.6,4.8,37.7,4.8z" class="st3"></path>
	<path d="M36.3,12.4v16.2l1.3,1.3l1.3-1.3V12.4H36.3z" class="st3"></path>
	<path d="M37.5,37l-1.1,1.8v9.6l1.4,1.6l1.2-1.6v-9.5L37.5,37z" class="st3"></path>
	<path d="M37.6,56.6l-1.3,2.2v8l1.3,1.5l1.3-1.5v-8.2L37.6,56.6z" class="st3"></path>
	<path d="M37.5,73.6l-1.2,2v7l1.4,2.1l1.3-2.2v-6.9L37.5,73.6z" class="st3"></path>
	<path d="M37.5,89.8L36.3,91v5.4l1.3,2.1l1.3-2.3v-5.1L37.5,89.8z" class="st3"></path>
	<path d="M32.7,13.8c-0.5-0.2-2,0.6-2.5,2c-0.5,1.4-1,3.7-0.9,5.2c0.1,1.5-0.6,2.8,5,9.7c5.6,6.9,7,10.4,6.9,12.7
		c-0.2,2.3,0.5,2.4-3.4,8c-3.9,5.6-5.7,8.4-5.6,11.5c0.1,2.9,1.6,5.5,4.1,8.2c2.5,2.6,4.3,4.7,4.1,8.2c-0.2,3.5-0.6,4.2-2.7,6.9
		c-2.1,2.7-3.9,5.5-3.9,5.5s3.3-2,4.8-3.9c1.5-1.9,3.7-3.3,3.8-8.7c0.1-5.5-2.5-7-4.1-8.8c-1.6-1.8-3.9-4.1-3.8-7.3
		c0.1-3.3,1.3-5.4,3.5-8.2c2.2-2.9,5.5-6.6,5.5-11.3c0-4.6-4.2-9.5-6.2-12.1c-2.1-2.5-5.8-7-5.8-9.9c0-2.9,1.4-4,1.6-5
		C33.2,15.5,33.2,14,32.7,13.8z" class="st3"></path>
	<path d="M31.4,15.8c0.5,0.1,0.6,0.2,0.6,0.7c0,0.4-0.2,1-0.6,0.9c-0.4-0.1-0.6-0.3-0.6-0.8C30.8,16,31,15.7,31.4,15.8z" class="st4"></path>
	<path d="M42.6,13.8c-0.5,0.4-1,1.3-0.4,2.4c0.6,1.1,1.7,3.2,1.5,4.9c-0.2,1.7-0.3,3.3-2,5.3c-1.7,2-3.5,4.3-3.5,4.3
		l1.2,2c0,0,3.8-4.4,5.1-6.9c1.3-2.4,1.6-4.3,1.4-6.6c-0.2-2.3-1-4-1.5-4.6C43.8,14,43.1,13.4,42.6,13.8z" class="st3"></path>
	<path d="M43.7,15.7C43.2,15.8,43,16,43,16.4c0,0.4,0.2,1,0.7,0.9c0.4-0.1,0.6-0.3,0.6-0.8C44.2,16,44.1,15.6,43.7,15.7
		z" class="st4"></path>
	<path d="M35.9,34.4l1.3,1.9c0,0-3.2,4.3-3.1,7.3c0.1,3.8,3.1,7.2,3.1,7.2l-1.5,2c0,0-3.9-4.9-3.8-9.2
		C32,39.2,35.9,34.4,35.9,34.4z" class="st3"></path>
	<path d="M39.5,54l-1.3,1.8c0,0,2.8,3.9,2.8,6.9c-0.1,4.2-2.8,6.1-2.8,6.1l1.5,1.5c0,0,3.4-3.2,3.2-8
		C42.6,57.5,39.5,54,39.5,54z" class="st3"></path>
	<path d="M35.5,71.6c0,0-2.8,3.8-2.6,7.4c0.2,4.8,3.1,8.1,3.1,8.1l1.3-1.6c0,0-2.3-2.7-2.4-6c-0.1-3.7,2.1-6.4,2.1-6.4
		L35.5,71.6z" class="st3"></path>
	<path d="M39.1,88.3l-0.8,0.9c0,0,0.5,0.4,1.2,1c0.7,0.6,2.1,1.8,2.1,1.8s-0.7-1.5-1.2-2.3
		C39.9,88.9,39.1,88.3,39.1,88.3z" class="st3"></path>
</g>
<g>
	<path d="M531.6,140.7h-2.8v-15.8h-2.5v-2.5h7.9v2.5h-2.5V140.7z" class="st0"></path>
	<path d="M543,122.3h4.2v18.4h-2.8v-14l-2,14h-2.8l-2-14.2v14.2h-2.4v-18.4h4.2l1.8,13.4L543,122.3z" class="st0"></path>
</g>
</svg>
